<?xml version="1.0" encoding="iso-8859-1"?>
<svg version="1.1" id="Layer_1" xmlns="http://www.w3.org/2000/svg" xmlns:xlink="http://www.w3.org/1999/xlink" x="0px" y="0px"
	 viewBox="0 0 512 512" style="enable-background:new 0 0 512 512;" xml:space="preserve">
<circle style="fill:#FFAD9E;" cx="256" cy="256" r="256"/>
<path style="fill:#FF6262;" d="M155.16,384.738l126.028,126.03c127.829-12.486,228.087-118.982,230.743-249.454L333.391,82.851
	L199.111,95.51L155.16,384.738z"/>
<path style="fill:#515151;" d="M292.345,276.687h-72.69c-30.577,0-55.453-24.876-55.453-55.453V120.099
	c0-30.577,24.876-55.453,55.453-55.453h72.69c30.577,0,55.453,24.876,55.453,55.453v101.135
	C347.798,251.811,322.922,276.687,292.345,276.687z M219.655,106.02c-7.763,0-14.079,6.316-14.079,14.079v101.135
	c0,7.763,6.316,14.079,14.079,14.079h72.69c7.763,0,14.079-6.316,14.079-14.079V120.099c0-7.763-6.316-14.079-14.079-14.079H219.655
	z"/>
<g>
	<path style="fill:#333333;" d="M292.345,64.646h-36.919v41.374h36.919c7.763,0,14.079,6.316,14.079,14.079v101.135
		c0,7.763-6.316,14.079-14.079,14.079h-36.919v41.374h36.919c30.577,0,55.453-24.876,55.453-55.453V120.099
		C347.798,89.522,322.922,64.646,292.345,64.646z"/>
	<circle style="fill:#333333;" cx="256" cy="284.444" r="142.222"/>
</g>
<path style="fill:#1E1E1E;" d="M256,142.222c-0.193,0-0.381,0.014-0.574,0.014v284.415c0.193,0,0.381,0.014,0.574,0.014
	c78.546,0,142.222-63.676,142.222-142.222S334.546,142.222,256,142.222z"/>
<circle style="fill:#515151;" cx="256" cy="284.444" r="56.889"/>
<path style="fill:#333333;" d="M256,227.556c31.418,0,56.889,25.471,56.889,56.889S287.418,341.333,256,341.333V227.556z"/>
<g>
</g>
<g>
</g>
<g>
</g>
<g>
</g>
<g>
</g>
<g>
</g>
<g>
</g>
<g>
</g>
<g>
</g>
<g>
</g>
<g>
</g>
<g>
</g>
<g>
</g>
<g>
</g>
<g>
</g>
</svg>
